<?xml version="1.0" encoding="utf-8"?>
<!-- Generator: Adobe Illustrator 21.0.2, SVG Export Plug-In . SVG Version: 6.00 Build 0)  -->
<svg version="1.1" id="Layer_1" xmlns="http://www.w3.org/2000/svg" xmlns:xlink="http://www.w3.org/1999/xlink" x="0px" y="0px"
	 viewBox="0 0 371.6 371.6" style="enable-background:new 0 0 371.6 371.6;" xml:space="preserve">
<style type="text/css">
	.st0{fill:#1EA6C6;}
</style>
<g>
	<path class="st0" d="M149,167.5c0-0.3,0-0.5,0-0.8c0-24.3,19.7-44.1,44.1-44.1c21,0,38.5,14.7,43,34.3c4.2-2.3,8.9-3.7,14-3.7
		c15.9,0,28.8,12.9,28.8,28.8c0,0.6,0,1.3-0.1,1.9c11.8,4.4,20.2,15.7,20.2,29.1c0,17.1-13.9,31-31,31H157.4
		c-21.4,0-38.8-17.4-38.8-38.8C118.6,186.9,131.6,171.4,149,167.5z"/>
</g>
</svg>
