<?xml version="1.0" encoding="utf-8"?>
<!-- Generator: Adobe Illustrator 21.0.2, SVG Export Plug-In . SVG Version: 6.00 Build 0)  -->
<svg version="1.1" id="Layer_1" xmlns="http://www.w3.org/2000/svg" xmlns:xlink="http://www.w3.org/1999/xlink" x="0px" y="0px"
	 viewBox="0 0 420 420" style="enable-background:new 0 0 420 420;" xml:space="preserve">
<style type="text/css">
	.st0{fill:#F5C525;}
	.st1{fill:#F8A805;}
	.st2{fill:#49C4C4;stroke:#67B4C6;stroke-miterlimit:10;}
</style>
<g>
	<polygon class="st0" points="304,184.4 272,211.8 289,250.4 248.2,261.2 246.8,303.3 205.4,295.3 185.8,332.7 152,307.5 
		118.2,332.7 98.6,295.3 57.2,303.3 55.8,261.2 15,250.4 32,211.8 0,184.4 32,157 15,118.5 55.8,107.7 57.2,65.6 98.6,73.5 
		118.2,36.2 152,61.4 185.8,36.2 205.4,73.5 246.8,65.6 248.2,107.7 289,118.5 272,157 	"/>
	<circle class="st1" cx="152" cy="184.4" r="101.3"/>
</g>
<g>
	<path class="st2" d="M175.9,243.6c0-0.4,0-0.8,0-1.2c0-37.1,31.2-67.2,69.6-67.2c33.1,0,60.9,22.3,67.9,52.3
		c6.6-3.5,14.1-5.6,22.2-5.6c25.1,0,45.5,19.7,45.5,43.9c0,1,0,2-0.1,2.9c18.7,6.7,32,24,32,44.3c0,26.1-21.9,47.3-49,47.3H189.2
		c-33.8,0-61.2-26.5-61.2-59.1C128,273,148.5,249.4,175.9,243.6z"/>
</g>
</svg>
